<svg height="1614" width="720" xmlns="http://www.w3.org/2000/svg">
<rect height="1614" fill="#555" width="720"></rect>
<text fill="#7f7" font-family="Courier New" font-size="12" xml:space="preserve">
<tspan x="10" y="26">└─┬ gulp-tinypng-compress@1.2.1 </tspan>
<tspan x="10" y="42">  ├─┬ gulp-util@3.0.8 </tspan>
<tspan x="10" y="58">  │ ├── array-differ@1.0.0 </tspan>
<tspan x="10" y="74">  │ ├── array-uniq@1.0.3 </tspan>
<tspan x="10" y="90">  │ ├── beeper@1.1.1 </tspan>
<tspan x="10" y="106">  │ ├─┬ chalk@1.1.3 </tspan>
<tspan x="10" y="122">  │ │ ├── ansi-styles@2.2.1 </tspan>
<tspan x="10" y="138">  │ │ ├── escape-string-regexp@1.0.5 </tspan>
<tspan x="10" y="154">  │ │ ├─┬ has-ansi@2.0.0 </tspan>
<tspan x="10" y="170">  │ │ │ └── ansi-regex@2.1.1 </tspan>
<tspan x="10" y="186">  │ │ ├── strip-ansi@3.0.1 </tspan>
<tspan x="10" y="202">  │ │ └── supports-color@2.0.0 </tspan>
<tspan x="10" y="218">  │ ├── dateformat@2.0.0 </tspan>
<tspan x="10" y="234">  │ ├─┬ fancy-log@1.3.0 </tspan>
<tspan x="10" y="250">  │ │ └── time-stamp@1.0.1 </tspan>
<tspan x="10" y="266">  │ ├─┬ gulplog@1.0.0 </tspan>
<tspan x="10" y="282">  │ │ └── glogg@1.0.0 </tspan>
<tspan x="10" y="298">  │ ├─┬ has-gulplog@0.1.0 </tspan>
<tspan x="10" y="314">  │ │ └── sparkles@1.0.0 </tspan>
<tspan x="10" y="330">  │ ├── lodash._reescape@3.0.0 </tspan>
<tspan x="10" y="346">  │ ├── lodash._reevaluate@3.0.0 </tspan>
<tspan x="10" y="362">  │ ├── lodash._reinterpolate@3.0.0 </tspan>
<tspan x="10" y="378">  │ ├─┬ lodash.template@3.6.2 </tspan>
<tspan x="10" y="394">  │ │ ├── lodash._basecopy@3.0.1 </tspan>
<tspan x="10" y="410">  │ │ ├── lodash._basetostring@3.0.1 </tspan>
<tspan x="10" y="426">  │ │ ├── lodash._basevalues@3.0.0 </tspan>
<tspan x="10" y="442">  │ │ ├── lodash._isiterateecall@3.0.9 </tspan>
<tspan x="10" y="458">  │ │ ├─┬ lodash.escape@3.2.0 </tspan>
<tspan x="10" y="474">  │ │ │ └── lodash._root@3.0.1 </tspan>
<tspan x="10" y="490">  │ │ ├─┬ lodash.keys@3.1.2 </tspan>
<tspan x="10" y="506">  │ │ │ ├── lodash._getnative@3.9.1 </tspan>
<tspan x="10" y="522">  │ │ │ ├── lodash.isarguments@3.1.0 </tspan>
<tspan x="10" y="538">  │ │ │ └── lodash.isarray@3.0.4 </tspan>
<tspan x="10" y="554">  │ │ ├── lodash.restparam@3.6.1 </tspan>
<tspan x="10" y="570">  │ │ └── lodash.templatesettings@3.1.1 </tspan>
<tspan x="10" y="586">  │ ├── minimist@1.2.0 </tspan>
<tspan x="10" y="602">  │ ├─┬ multipipe@0.1.2 </tspan>
<tspan x="10" y="618">  │ │ └─┬ duplexer2@0.0.2 </tspan>
<tspan x="10" y="634">  │ │   └── readable-stream@1.1.14 </tspan>
<tspan x="10" y="650">  │ ├── object-assign@3.0.0 </tspan>
<tspan x="10" y="666">  │ ├── replace-ext@0.0.1 </tspan>
<tspan x="10" y="682">  │ └─┬ vinyl@0.5.3 </tspan>
<tspan x="10" y="698">  │   ├── clone@1.0.2 </tspan>
<tspan x="10" y="714">  │   └── clone-stats@0.0.1 </tspan>
<tspan x="10" y="730">  ├─┬ minimatch@2.0.10 </tspan>
<tspan x="10" y="746">  │ └─┬ brace-expansion@1.1.6 </tspan>
<tspan x="10" y="762">  │   ├── balanced-match@0.4.2 </tspan>
<tspan x="10" y="778">  │   └── concat-map@0.0.1 </tspan>
<tspan x="10" y="794">  ├─┬ request@2.55.0 </tspan>
<tspan x="10" y="810">  │ ├── aws-sign2@0.5.0 </tspan>
<tspan x="10" y="826">  │ ├─┬ bl@0.9.5 </tspan>
<tspan x="10" y="842">  │ │ └─┬ readable-stream@1.0.34 </tspan>
<tspan x="10" y="858">  │ │   └── isarray@0.0.1 </tspan>
<tspan x="10" y="874">  │ ├── caseless@0.9.0 </tspan>
<tspan x="10" y="890">  │ ├─┬ combined-stream@0.0.7 </tspan>
<tspan x="10" y="906">  │ │ └── delayed-stream@0.0.5 </tspan>
<tspan x="10" y="922">  │ ├── forever-agent@0.6.1 </tspan>
<tspan x="10" y="938">  │ ├─┬ form-data@0.2.0 </tspan>
<tspan x="10" y="954">  │ │ └── async@0.9.2 </tspan>
<tspan x="10" y="970">  │ ├─┬ har-validator@1.8.0 </tspan>
<tspan x="10" y="986">  │ │ ├── bluebird@2.11.0 </tspan>
<tspan x="10" y="1002">  │ │ ├─┬ commander@2.9.0 </tspan>
<tspan x="10" y="1018">  │ │ │ └── graceful-readlink@1.0.1 </tspan>
<tspan x="10" y="1034">  │ │ └─┬ is-my-json-valid@2.16.0 </tspan>
<tspan x="10" y="1050">  │ │   ├── generate-function@2.0.0 </tspan>
<tspan x="10" y="1066">  │ │   ├─┬ generate-object-property@1.2.0 </tspan>
<tspan x="10" y="1082">  │ │   │ └── is-property@1.0.2 </tspan>
<tspan x="10" y="1098">  │ │   └── jsonpointer@4.0.1 </tspan>
<tspan x="10" y="1114">  │ ├─┬ hawk@2.3.1 </tspan>
<tspan x="10" y="1130">  │ │ ├── boom@2.10.1 </tspan>
<tspan x="10" y="1146">  │ │ ├── cryptiles@2.0.5 </tspan>
<tspan x="10" y="1162">  │ │ ├── hoek@2.16.3 </tspan>
<tspan x="10" y="1178">  │ │ └── sntp@1.0.9 </tspan>
<tspan x="10" y="1194">  │ ├─┬ http-signature@0.10.1 </tspan>
<tspan x="10" y="1210">  │ │ ├── asn1@0.1.11 </tspan>
<tspan x="10" y="1226">  │ │ ├── assert-plus@0.1.5 </tspan>
<tspan x="10" y="1242">  │ │ └── ctype@0.5.3 </tspan>
<tspan x="10" y="1258">  │ ├── isstream@0.1.2 </tspan>
<tspan x="10" y="1274">  │ ├── json-stringify-safe@5.0.1 </tspan>
<tspan x="10" y="1290">  │ ├─┬ mime-types@2.0.14 </tspan>
<tspan x="10" y="1306">  │ │ └── mime-db@1.12.0 </tspan>
<tspan x="10" y="1322">  │ ├── node-uuid@1.4.8 </tspan>
<tspan x="10" y="1338">  │ ├── oauth-sign@0.6.0 </tspan>
<tspan x="10" y="1354">  │ ├── qs@2.4.2 </tspan>
<tspan x="10" y="1370">  │ ├── stringstream@0.0.5 </tspan>
<tspan x="10" y="1386">  │ ├─┬ tough-cookie@2.3.2 </tspan>
<tspan x="10" y="1402">  │ │ └── punycode@1.4.1 </tspan>
<tspan x="10" y="1418">  │ └── tunnel-agent@0.4.3 </tspan>
<tspan x="10" y="1434">  ├─┬ through2@2.0.3 </tspan>
<tspan x="10" y="1450">  │ ├─┬ readable-stream@2.2.6 </tspan>
<tspan x="10" y="1466">  │ │ ├── buffer-shims@1.0.0 </tspan>
<tspan x="10" y="1482">  │ │ ├── core-util-is@1.0.2 </tspan>
<tspan x="10" y="1498">  │ │ ├── inherits@2.0.3 </tspan>
<tspan x="10" y="1514">  │ │ ├── isarray@1.0.0 </tspan>
<tspan x="10" y="1530">  │ │ ├── process-nextick-args@1.0.7 </tspan>
<tspan x="10" y="1546">  │ │ ├── string_decoder@0.10.31 </tspan>
<tspan x="10" y="1562">  │ │ └── util-deprecate@1.0.2 </tspan>
<tspan x="10" y="1578">  │ └── xtend@4.0.1 </tspan>
<tspan x="10" y="1594">  └── through2-concurrent@1.1.1</tspan>
</text>
</svg>
